<?xml version="1.0" standalone="no"?>
<!DOCTYPE svg PUBLIC "-//W3C//DTD SVG 20010904//EN"
 "http://www.w3.org/TR/2001/REC-SVG-20010904/DTD/svg10.dtd">
<svg version="1.0" xmlns="http://www.w3.org/2000/svg"
 width="379.000000pt" height="379.000000pt" viewBox="0 0 379.000000 379.000000"
 preserveAspectRatio="xMidYMid meet">
<metadata>
Created by potrace 1.14, written by Peter Selinger 2001-2017
</metadata>
<g transform="translate(0.000000,379.000000) scale(0.100000,-0.100000)"
fill="#000000" stroke="none">
<path d="M1729 3786 c-2 -2 -31 -6 -64 -9 -430 -43 -884 -280 -1186 -620 -242
-273 -397 -600 -460 -967 -20 -116 -16 -574 5 -608 2 -4 7 -25 10 -47 20 -127
91 -334 163 -480 264 -526 784 -916 1353 -1015 36 -6 76 -14 90 -17 60 -13
418 -12 513 2 400 59 744 224 1048 503 252 232 461 595 538 932 42 185 49 256
47 470 -2 178 -6 222 -30 335 -78 375 -248 695 -510 960 -310 312 -694 500
-1131 554 -68 8 -378 14 -386 7z"/>
</g>
</svg>
