<?xml version="1.0" standalone="no"?>
<!DOCTYPE svg PUBLIC "-//W3C//DTD SVG 20010904//EN"
 "http://www.w3.org/TR/2001/REC-SVG-20010904/DTD/svg10.dtd">
<svg version="1.0" xmlns="http://www.w3.org/2000/svg"
 width="260.000000pt" height="260.000000pt" viewBox="0 0 260.000000 260.000000"
 preserveAspectRatio="xMidYMid meet">
<metadata>
Created by potrace 1.14, written by Peter Selinger 2001-2017
</metadata>
<g transform="translate(0.000000,260.000000) scale(0.100000,-0.100000)"
fill="#000000" stroke="none">
<path d="M1255 2313 c-44 -8 -100 -78 -108 -134 -2 -13 -12 -24 -23 -25 -21
-3 -42 -8 -64 -17 -8 -3 -22 -5 -30 -6 -8 0 -22 -2 -30 -4 -8 -2 -28 -7 -45
-12 -16 -4 -35 -12 -42 -17 -7 -5 -17 -7 -23 -3 -5 3 -10 1 -10 -4 0 -6 -4
-11 -9 -11 -5 0 -44 -16 -85 -35 -42 -19 -80 -35 -85 -35 -5 0 -12 -6 -15 -12
-5 -10 -7 -10 -12 0 -3 6 -11 12 -18 12 -7 0 -21 9 -31 20 -10 11 -26 20 -37
20 -10 0 -18 5 -18 12 0 6 -3 8 -6 5 -4 -3 -15 -2 -24 3 -17 9 -26 1 -35 -32
-2 -5 -3 -9 -5 -10 -6 -8 -7 -38 -1 -38 4 0 8 -12 9 -27 4 -44 8 -62 15 -69 3
-3 -6 -20 -21 -36 -55 -60 -60 -66 -54 -72 3 -3 -2 -6 -11 -6 -9 0 -16 -6 -14
-12 1 -7 -3 -12 -10 -11 -6 2 -17 -13 -23 -32 -6 -19 -15 -35 -19 -35 -8 0
-34 -48 -35 -65 -1 -5 -10 -10 -21 -10 -11 0 -23 -4 -27 -10 -5 -6 -8 -5 -8 2
0 12 -45 12 -90 2 -27 -7 -53 -38 -54 -66 -1 -31 10 -49 69 -105 22 -21 34
-38 27 -38 -7 0 -10 -5 -7 -10 4 -6 1 -17 -5 -25 -7 -8 -10 -15 -6 -15 3 0 1
-11 -4 -25 -14 -36 -21 -74 -24 -122 -1 -24 -5 -46 -9 -49 -4 -4 -1 -14 6 -22
10 -13 9 -14 -1 -8 -9 6 -11 0 -7 -25 3 -18 8 -36 11 -41 3 -4 1 -8 -4 -8 -5
0 -9 -43 -9 -95 0 -52 4 -95 9 -95 5 0 4 -8 -1 -18 -6 -11 -7 -23 -2 -28 4 -5
14 -29 22 -54 7 -25 21 -53 29 -64 45 -56 87 -93 103 -91 9 2 17 0 17 -5 0 -5
38 -7 84 -6 66 2 83 -1 79 -11 -3 -7 -8 -13 -12 -13 -4 0 -15 -16 -24 -35 -9
-19 -21 -35 -26 -35 -5 0 -8 -8 -7 -17 2 -9 -3 -24 -11 -32 -7 -9 -13 -18 -13
-21 0 -10 -37 -110 -43 -117 -12 -11 -7 -24 6 -17 7 5 7 1 -2 -10 -8 -10 -15
-32 -16 -49 0 -18 -3 -36 -6 -42 -3 -5 -7 -28 -8 -50 -1 -22 -7 -43 -14 -47
-8 -5 -8 -8 -1 -8 10 0 11 -29 2 -72 -3 -11 157 -13 934 -16 l936 -2 -3 34
c-2 19 -8 42 -13 53 -5 10 -7 24 -5 31 3 6 0 12 -5 12 -9 0 -27 79 -25 108 0
6 -3 12 -7 12 -8 0 -24 71 -23 103 0 10 -2 15 -5 12 -8 -8 -33 55 -26 66 3 5
1 9 -5 9 -6 0 -18 16 -27 35 -9 19 -21 35 -27 35 -6 0 -8 3 -4 6 6 6 -4 21
-37 54 -20 20 -20 20 0 21 59 4 71 4 95 -2 16 -4 32 -2 39 4 10 9 11 9 6 0
-10 -19 2 -16 41 8 19 12 36 19 39 16 7 -6 59 46 56 56 -1 4 2 7 8 7 5 0 10 6
10 13 0 7 13 31 30 54 16 22 27 43 23 47 -3 3 -1 6 6 6 7 0 9 5 6 10 -4 6 -3
16 2 23 33 42 62 260 41 301 -8 14 -7 17 3 11 8 -5 10 -4 5 4 -23 37 -16 60
35 108 55 53 67 90 39 123 -30 34 -101 53 -145 39 -12 -4 -25 -1 -33 7 -7 8
-10 14 -6 14 4 0 -1 9 -10 19 -10 11 -19 25 -20 33 -9 41 -19 68 -28 68 -5 0
-7 4 -4 8 3 5 -4 19 -15 30 -11 12 -16 22 -12 22 4 0 3 4 -2 8 -6 4 -21 24
-35 44 -14 21 -28 38 -32 38 -5 0 -8 7 -8 16 0 8 -4 12 -10 9 -5 -3 -10 -2
-10 4 0 6 -11 22 -26 36 -14 14 -23 29 -19 34 3 5 -4 12 -15 16 -23 7 -25 16
-8 33 7 7 9 12 5 12 -4 0 -1 16 8 35 8 20 10 33 4 29 -6 -4 -9 2 -7 13 1 10
-7 29 -18 41 -22 23 -64 38 -64 22 0 -5 -6 -7 -14 -4 -8 3 -29 -3 -48 -12 -42
-23 -50 -23 -68 -4 -20 21 -94 60 -113 60 -8 0 -17 4 -19 10 -1 5 -13 11 -25
13 -12 2 -26 6 -29 10 -4 4 -16 7 -26 7 -10 0 -18 3 -18 8 0 4 -14 8 -32 9
-17 1 -34 6 -37 11 -3 5 -19 9 -36 9 -29 0 -92 10 -128 20 -9 2 -15 9 -12 14
4 5 2 9 -3 9 -5 0 -9 10 -9 23 -1 64 -4 77 -18 77 -8 0 -12 6 -9 13 4 11 -40
42 -49 36 -1 -1 -11 -4 -22 -6z"/>
</g>
</svg>
