<?xml version="1.0" standalone="no"?>
<!DOCTYPE svg PUBLIC "-//W3C//DTD SVG 20010904//EN"
 "http://www.w3.org/TR/2001/REC-SVG-20010904/DTD/svg10.dtd">
<svg version="1.0" xmlns="http://www.w3.org/2000/svg"
 width="382.000000pt" height="382.000000pt" viewBox="0 0 382.000000 382.000000"
 preserveAspectRatio="xMidYMid meet">
<metadata>
Created by potrace 1.14, written by Peter Selinger 2001-2017
</metadata>
<g transform="translate(0.000000,382.000000) scale(0.100000,-0.100000)"
fill="#000000" stroke="none">
<path d="M0 1910 l0 -1910 250 0 250 0 5 23 c4 13 5 27 4 33 -1 5 0 11 1 14 1
3 3 16 5 30 6 76 18 151 25 155 4 3 8 23 8 46 1 23 5 54 10 68 6 14 15 53 22
86 7 33 15 65 19 70 4 6 16 33 26 60 10 28 22 54 26 59 5 6 9 16 9 24 0 8 16
36 35 62 19 26 35 51 35 56 0 4 10 18 21 30 36 38 20 51 -52 44 -82 -8 -185 3
-232 25 -20 9 -47 31 -61 48 -13 18 -38 48 -55 67 -17 19 -31 41 -31 48 0 7
-4 20 -9 30 -24 47 -41 102 -44 152 -3 30 -7 62 -11 70 -3 8 -2 49 3 90 5 44
5 80 -1 87 -5 6 -5 14 0 16 4 3 9 74 10 158 2 84 6 157 10 163 4 6 12 36 19
66 6 30 15 69 18 85 4 17 13 44 21 62 8 17 14 35 14 40 0 6 -34 44 -75 86 -66
68 -75 81 -75 114 0 43 40 93 75 93 11 0 26 5 32 11 11 11 34 10 121 -5 41 -7
72 8 72 35 0 11 16 40 35 63 19 24 35 48 35 55 0 12 114 155 177 222 l34 36
-11 54 c-6 30 -14 88 -17 131 -4 67 -3 77 13 86 31 16 104 -9 177 -62 l67 -48
29 21 c16 12 34 21 40 21 6 0 29 11 51 25 22 14 48 25 59 25 11 0 23 5 26 10
3 6 14 10 23 10 9 0 28 9 42 20 14 11 34 20 45 20 11 0 33 7 49 15 15 8 37 15
47 15 10 0 20 4 23 9 3 4 32 11 66 14 33 3 79 15 103 26 24 12 55 20 68 19 19
-3 24 3 29 32 10 52 58 138 96 168 41 33 99 43 135 24 30 -17 70 -98 69 -140
-1 -15 3 -42 7 -61 8 -32 13 -35 68 -48 33 -8 87 -16 120 -19 56 -5 80 -10
130 -30 11 -4 27 -9 35 -10 24 -4 163 -54 174 -63 6 -4 34 -16 61 -26 57 -21
134 -70 142 -91 8 -22 46 -17 83 11 21 16 47 25 70 25 20 0 40 4 46 9 16 14
71 -7 89 -36 20 -30 23 -107 6 -171 -9 -32 -9 -46 1 -62 7 -11 16 -20 20 -20
5 0 8 -9 8 -20 0 -11 4 -20 8 -20 5 0 14 -11 20 -25 6 -14 17 -25 24 -25 14 0
128 -147 153 -198 9 -18 20 -32 24 -32 4 0 18 -24 31 -52 52 -119 60 -138 60
-147 0 -5 7 -14 15 -21 8 -7 15 -21 15 -31 0 -23 21 -28 95 -25 65 2 122 -13
167 -45 24 -18 28 -27 28 -69 0 -47 -1 -49 -82 -125 -76 -72 -81 -78 -68 -98
9 -15 15 -69 18 -163 4 -124 2 -149 -16 -200 -11 -33 -23 -77 -27 -99 -3 -22
-10 -49 -15 -60 -4 -11 -16 -40 -25 -65 -9 -25 -30 -62 -46 -82 -16 -20 -29
-41 -29 -47 0 -18 -54 -100 -70 -105 -8 -3 -33 -17 -55 -30 -60 -37 -134 -61
-148 -47 -6 6 -48 11 -99 11 -87 0 -88 0 -88 -25 0 -14 5 -25 10 -25 6 0 10
-6 10 -13 0 -7 9 -18 21 -25 11 -7 27 -29 35 -48 8 -18 19 -34 24 -34 6 0 10
-7 10 -17 0 -9 11 -31 25 -49 14 -18 25 -41 25 -51 0 -10 9 -36 20 -58 11 -22
20 -51 20 -66 0 -15 6 -31 13 -37 7 -6 14 -28 15 -49 2 -21 7 -42 12 -47 6 -6
10 -25 10 -43 0 -17 4 -42 9 -55 5 -13 16 -48 26 -78 10 -30 22 -59 26 -64 5
-6 9 -25 9 -43 l0 -33 270 0 270 0 0 1910 0 1910 -1910 0 -1910 0 0 -1910z"/>
</g>
</svg>
